 <svg version="1.0" xmlns="http://www.w3.org/2000/svg" width="700.000000pt" height="609.000000pt" viewBox="0 0 700.000000 609.000000" preserveAspectRatio="xMidYMid meet">
<metadata>
Created by potrace 1.12, written by Peter Selinger 2001-2015
</metadata>
<g transform="translate(0.000000,609.000000) scale(0.100000,-0.100000)" fill="#000000" stroke="none">
<path d="M4625 5925 c-42 -16 -178 -40 -283 -50 -34 -3 -107 -1 -161 6 l-99
12 -74 -37 c-41 -20 -111 -67 -155 -104 -44 -37 -93 -78 -110 -92 -100 -82
-123 -111 -179 -227 -51 -105 -57 -128 -65 -208 -13 -148 -28 -234 -46 -268
-15 -30 -24 -122 -24 -246 0 -53 35 -129 66 -143 13 -6 30 -24 38 -42 8 -17
24 -51 36 -76 11 -25 21 -53 21 -62 0 -9 12 -30 26 -47 17 -20 31 -56 41 -104
8 -39 21 -87 29 -106 21 -50 9 -75 -51 -112 -81 -49 -86 -73 -30 -141 13 -15
28 -49 34 -75 11 -46 15 -50 60 -66 36 -13 81 -17 178 -17 146 0 160 -5 195
-73 11 -23 31 -55 43 -72 13 -16 33 -53 45 -81 11 -28 39 -68 60 -89 l38 -37
74 4 c89 5 157 36 251 113 103 85 169 84 195 -3 18 -58 15 -196 -4 -233 l-15
-31 -82 7 c-77 6 -84 5 -120 -19 -51 -35 -99 -58 -177 -86 -36 -13 -79 -33
-96 -46 -18 -13 -67 -40 -110 -61 l-79 -38 -190 0 c-151 0 -201 4 -245 17 -66
21 -193 36 -395 48 -82 5 -170 14 -195 19 -25 6 -49 10 -54 11 -4 0 -43 33
-85 74 -84 81 -173 146 -259 189 -31 16 -71 42 -90 58 -18 16 -38 29 -44 29
-22 0 -108 73 -114 96 -4 17 3 38 27 75 29 46 32 58 35 142 4 113 -10 147 -93
229 -56 55 -62 59 -148 78 -123 27 -125 27 -125 -12 0 -18 9 -53 20 -77 11
-24 20 -52 20 -63 0 -26 -36 -85 -60 -98 -25 -13 -50 12 -50 50 0 16 -5 32
-11 36 -6 3 -23 34 -39 68 -23 52 -35 66 -83 94 -52 31 -59 33 -114 26 -32 -3
-69 -11 -82 -16 -20 -7 -31 -3 -64 23 -22 18 -63 38 -91 44 -28 7 -71 22 -96
33 -85 39 -118 52 -129 52 -6 0 -44 11 -84 25 -86 31 -209 62 -275 71 -45 6
-51 4 -70 -21 -39 -50 -31 -68 73 -152 52 -43 95 -86 95 -95 0 -33 -53 -108
-208 -297 -58 -70 -72 -94 -72 -124 0 -39 19 -42 75 -13 26 15 60 26 76 26 15
0 60 11 100 25 44 15 77 21 83 15 23 -23 -31 -113 -151 -248 -40 -45 -73 -87
-73 -93 0 -28 63 -140 95 -168 21 -18 75 -50 123 -73 l85 -40 18 23 c10 13 19
38 19 54 0 17 3 47 6 68 6 32 4 37 -13 37 -19 0 -43 18 -43 32 0 5 19 21 43
36 70 45 117 84 188 157 l67 69 41 -42 c23 -23 47 -42 55 -42 18 0 83 -63 145
-143 48 -61 57 -67 160 -111 151 -65 169 -67 217 -24 27 25 35 40 31 53 -5 12
-14 16 -29 12 -26 -7 -105 13 -178 46 -55 24 -64 35 -91 106 -9 23 -23 38 -48
48 -19 8 -80 57 -135 109 -93 89 -102 94 -142 94 -37 0 -51 -7 -105 -52 -104
-89 -135 -112 -180 -138 -23 -14 -61 -42 -82 -63 -39 -37 -40 -39 -34 -92 6
-61 -3 -74 -38 -55 -29 16 -45 51 -45 99 0 32 9 48 65 110 40 44 80 102 102
148 30 62 49 86 112 140 42 36 81 67 87 70 24 9 186 -87 321 -189 44 -34 86
-36 107 -6 22 31 21 68 -1 68 -19 0 -75 35 -163 101 -30 22 -90 63 -132 90
-115 72 -161 66 -255 -36 -34 -37 -63 -44 -83 -20 -7 8 -20 15 -29 15 -19 0
-80 -39 -116 -76 -25 -25 -45 -25 -45 2 0 27 112 174 133 174 6 0 35 12 66 27
126 59 172 73 251 73 l76 0 54 -64 c30 -35 96 -101 148 -147 61 -54 99 -97
109 -121 26 -64 91 -88 128 -48 19 21 50 26 60 10 13 -20 45 -9 71 26 15 19
40 42 57 50 46 24 71 92 63 171 -4 42 -3 63 4 63 19 0 112 -93 125 -125 7 -16
16 -55 20 -86 l7 -56 -43 -24 c-72 -41 -75 -62 -17 -158 18 -29 39 -65 47 -80
17 -32 51 -71 63 -71 5 0 53 -21 106 -47 107 -51 228 -146 321 -251 55 -62
113 -102 148 -102 10 0 29 7 42 16 20 14 42 16 155 10 140 -7 231 -25 311 -61
53 -24 269 -49 389 -45 33 1 87 -4 121 -11 l61 -12 100 58 c146 86 245 134
369 180 119 44 133 47 265 43 123 -3 130 -4 157 -29 15 -15 41 -29 57 -33 58
-14 101 49 59 86 -24 21 -77 47 -137 68 l-51 17 -1 74 c-1 95 -17 203 -39 256
-53 132 -191 145 -326 30 -164 -139 -195 -153 -235 -109 -13 14 -24 30 -24 37
0 7 -19 40 -42 75 -24 34 -59 90 -78 124 -50 86 -63 91 -222 77 -116 -10 -132
-9 -166 7 -28 13 -40 27 -54 64 -10 26 -15 54 -12 62 3 7 23 21 44 31 22 10
47 27 57 37 34 37 49 40 115 17 35 -11 88 -33 118 -49 30 -15 76 -35 102 -44
26 -10 83 -39 128 -66 136 -82 203 -95 282 -54 39 20 49 68 38 194 -17 207
-45 305 -128 442 -28 48 -61 111 -73 140 -28 72 -60 111 -132 164 -57 41 -65
44 -125 44 -57 0 -69 -4 -106 -32 -50 -39 -178 -153 -265 -237 -68 -65 -83
-67 -95 -13 -5 26 -32 71 -100 164 -29 40 -34 57 -40 125 -7 84 6 147 44 208
22 36 26 98 9 158 -15 54 6 128 54 197 21 30 51 82 66 115 19 41 52 85 107
140 64 65 96 89 169 124 50 24 102 52 117 63 32 22 60 23 143 2 58 -15 68 -15
112 0 26 8 98 18 158 22 63 4 124 13 143 21 35 17 74 14 197 -11 172 -35 203
-55 386 -246 85 -89 170 -186 190 -215 50 -74 158 -361 166 -439 6 -69 -16
-153 -62 -231 -26 -45 -177 -187 -240 -227 -23 -14 -56 -42 -74 -63 -59 -67
-144 -208 -185 -305 -53 -128 -53 -184 -2 -295 42 -91 63 -116 126 -153 58
-34 148 -102 182 -139 43 -47 132 -176 160 -234 17 -34 30 -80 34 -124 6 -66
9 -73 58 -126 28 -31 68 -83 88 -115 21 -33 70 -95 109 -139 45 -49 85 -106
106 -150 18 -38 41 -83 52 -100 10 -16 28 -48 41 -70 12 -22 31 -55 42 -73 20
-33 43 -130 58 -248 4 -34 10 -66 14 -72 8 -13 46 -235 46 -268 0 -12 -10 -43
-21 -70 -19 -43 -21 -60 -16 -149 4 -56 13 -117 21 -136 8 -19 68 -89 135
-156 121 -122 158 -176 181 -262 6 -24 22 -53 36 -66 18 -16 24 -33 24 -62 0
-27 11 -57 36 -99 82 -134 85 -152 59 -407 -12 -119 -20 -157 -40 -197 -33
-65 -88 -118 -167 -161 l-63 -34 88 -3 88 -3 57 52 c92 83 118 146 132 314 5
61 12 142 15 180 11 124 21 143 46 83 21 -50 14 -369 -11 -468 -10 -41 -21
-94 -24 -117 l-6 -43 55 0 c51 0 55 2 61 27 4 15 2 158 -3 318 -11 280 -12
293 -41 380 -32 100 -70 179 -113 240 -55 77 -57 79 -73 66 -11 -10 -17 -8
-30 11 -9 12 -16 28 -16 35 0 8 -13 41 -29 76 -22 48 -56 90 -147 182 -151
154 -153 158 -153 422 -1 120 -6 215 -15 263 -21 107 -72 291 -100 358 -13 31
-27 68 -31 82 -4 14 -20 52 -35 85 -15 33 -39 96 -54 139 -24 73 -34 87 -115
171 -106 109 -136 151 -197 275 -15 30 -44 89 -64 130 -21 41 -41 86 -45 100
-4 14 -26 58 -49 99 -33 60 -55 84 -116 131 -134 103 -209 184 -302 328 -26
40 -23 60 28 163 25 52 57 118 71 147 14 29 47 74 72 100 56 57 131 122 142
122 11 0 95 123 125 183 15 29 32 59 39 67 24 29 76 133 95 190 24 70 18 133
-17 199 -12 24 -23 50 -23 58 0 33 -101 255 -131 288 -10 11 -22 32 -28 46
-10 28 -200 203 -299 276 -81 60 -170 109 -217 117 -22 4 -56 16 -75 26 -64
34 -197 47 -255 25z m-545 -1300 c9 -11 11 -39 6 -103 -4 -48 -9 -131 -12
-184 -4 -54 -10 -98 -15 -98 -11 0 -24 31 -69 160 -54 156 -53 168 20 216 42
27 54 29 70 9z m270 -212 c0 -3 11 -21 25 -39 31 -41 31 -64 0 -131 -40 -83
-42 -80 -65 92 -6 44 -15 95 -20 113 -16 60 0 69 31 18 16 -25 29 -49 29 -53z
m-149 -55 c15 -56 21 -271 8 -305 -13 -36 -29 -18 -34 38 -3 44 -8 272 -6 297
2 27 21 10 32 -30z m-391 -78 c0 -54 -4 -101 -9 -105 -13 -7 -41 34 -41 61 0
13 -11 36 -25 52 -29 34 -25 59 11 68 13 3 28 12 35 20 22 26 29 2 29 -96z
m140 -81 c0 -10 5 -21 10 -24 6 -3 10 -17 10 -31 0 -31 -28 -43 -46 -20 -17
24 -27 90 -19 118 l8 22 18 -23 c11 -13 19 -31 19 -42z m-2760 -69 c6 -11 19
-20 30 -20 26 0 50 -10 50 -21 0 -5 -11 -14 -24 -20 -22 -10 -29 -7 -61 24
-20 20 -34 41 -30 46 10 17 23 13 35 -9z m3274 -7 c2 -10 6 -63 8 -118 l3
-100 -31 -3 c-49 -5 -61 19 -41 76 10 26 17 56 17 67 0 31 20 95 30 95 5 0 11
-8 14 -17z m-2626 -181 c100 -107 168 -222 131 -222 -6 0 -52 40 -103 90 -50
49 -101 97 -113 106 -13 8 -23 24 -23 35 0 16 7 19 41 19 32 0 46 -6 67 -28z
m4766 -3016 c23 -47 16 -55 -23 -25 -29 23 -39 48 -24 63 13 12 28 0 47 -38z"></path>
<path d="M3991 5400 c-46 -26 -95 -73 -146 -142 -51 -70 -82 -95 -143 -117
-34 -12 -49 -24 -56 -44 -9 -24 -6 -31 17 -53 32 -30 32 -28 7 -69 -16 -26
-18 -38 -10 -59 10 -27 11 -27 77 -21 37 4 105 18 150 31 46 13 90 24 98 24
20 0 93 67 111 101 8 16 19 62 26 102 10 68 9 78 -9 118 -12 24 -24 58 -28 74
-8 38 -32 75 -48 74 -6 0 -27 -9 -46 -19z m13 -169 c15 -16 16 -30 11 -78 -10
-79 -24 -98 -91 -119 -55 -17 -57 -17 -70 1 -24 32 -17 72 19 112 18 21 43 53
56 71 25 36 50 41 75 13z"></path>
<path d="M4772 5095 c-51 -45 -79 -107 -66 -143 16 -45 44 -34 79 28 37 66 63
75 105 35 28 -27 29 -30 27 -124 -1 -55 4 -116 12 -143 13 -46 13 -49 -13 -83
-33 -43 -71 -69 -90 -62 -9 4 -24 24 -36 47 -25 48 -60 55 -86 15 -28 -42 -12
-85 55 -149 83 -78 92 -77 188 33 43 49 87 105 97 125 20 37 20 38 1 84 -19
45 -21 86 -14 217 3 51 -20 88 -72 117 -22 12 -39 25 -39 30 0 4 -25 8 -55 8
-49 0 -59 -4 -93 -35z"></path>
<path d="M4804 4896 c-38 -17 -47 -50 -32 -124 9 -41 17 -56 35 -65 20 -9 27
-7 45 11 30 30 44 149 21 175 -19 20 -28 21 -69 3z"></path>
<path d="M2180 3122 c-35 -5 -50 -20 -50 -49 0 -30 97 -143 185 -214 33 -27
87 -71 120 -99 54 -45 137 -104 219 -154 15 -10 71 -24 125 -31 53 -8 147 -21
208 -29 105 -15 115 -15 148 1 31 15 40 15 73 4 41 -15 187 -77 214 -91 9 -5
54 -12 100 -16 46 -3 100 -10 122 -16 70 -17 150 -30 231 -37 61 -4 80 -10 80
-21 0 -18 -125 -113 -180 -136 -22 -9 -68 -30 -103 -46 -45 -20 -78 -28 -120
-28 -31 0 -102 -7 -156 -15 -55 -8 -120 -15 -146 -15 -26 0 -69 -7 -96 -16
-33 -11 -102 -18 -207 -21 -150 -5 -160 -4 -187 16 -16 11 -34 21 -40 21 -20
0 -115 33 -130 45 -60 47 -288 115 -387 115 -65 0 -73 12 -73 112 0 67 -4 80
-35 134 -51 85 -104 131 -164 139 -31 4 -56 2 -68 -5 -16 -10 -29 -5 -86 34
-75 50 -156 84 -224 93 -38 5 -212 -9 -281 -23 -34 -7 -25 -44 16 -69 48 -29
158 -126 186 -164 34 -45 24 -65 -26 -57 -22 4 -56 15 -77 26 -129 67 -204 90
-298 90 -28 0 -96 -20 -196 -57 -147 -55 -155 -57 -242 -55 -56 2 -116 11
-159 23 -38 11 -108 22 -156 25 -104 5 -115 -3 -108 -70 8 -71 36 -99 156
-157 136 -66 185 -79 302 -79 52 0 110 -4 128 -10 56 -16 124 -13 175 6 41 16
49 17 57 4 12 -19 6 -26 -32 -34 -18 -3 -41 -14 -53 -24 -18 -16 -74 -43 -198
-96 -21 -9 -45 -16 -55 -16 -9 0 -42 -9 -72 -21 -30 -12 -87 -29 -127 -39 -40
-10 -77 -21 -83 -25 -17 -10 -11 -55 10 -82 28 -36 27 -116 -2 -163 -24 -38
-30 -132 -10 -152 6 -6 36 -13 66 -16 48 -4 59 -1 103 29 92 62 134 103 156
148 16 32 30 47 50 52 15 4 41 19 57 32 31 27 68 43 77 34 10 -11 -31 -99 -54
-114 -13 -8 -23 -25 -23 -38 0 -32 97 -150 152 -184 29 -18 60 -51 82 -85 60
-94 103 -107 266 -81 79 12 113 22 137 41 18 14 33 29 33 35 0 31 -204 205
-276 235 -25 11 -34 20 -34 38 0 41 16 43 175 31 126 -11 167 -10 255 2 58 8
121 22 140 32 19 10 81 41 138 70 57 29 110 50 118 47 8 -3 24 -21 35 -41 13
-22 31 -37 48 -41 32 -6 51 -14 283 -107 48 -19 111 -40 140 -47 64 -14 312
-97 351 -117 42 -21 200 -68 297 -87 83 -17 87 -17 189 3 58 12 144 37 192 56
49 19 139 48 201 64 264 70 413 127 653 250 60 31 113 58 118 60 4 2 5 -13 2
-33 -7 -32 -5 -36 21 -46 110 -43 176 -85 243 -155 38 -40 78 -86 88 -102 10
-15 32 -47 50 -70 17 -24 35 -53 39 -65 3 -13 28 -50 54 -83 26 -33 62 -84 80
-112 30 -50 119 -310 141 -415 6 -25 28 -76 50 -112 51 -86 51 -106 -3 -131
l-43 -20 -11 -130 c-12 -147 -13 -148 -66 -228 -45 -66 -77 -134 -78 -159 0
-15 9 -18 60 -18 57 0 60 1 60 25 0 14 10 42 23 63 62 102 96 189 111 284 9
54 16 112 16 130 0 25 9 41 40 69 22 20 40 46 40 57 0 11 -22 64 -49 116 -30
58 -52 116 -56 148 -9 64 -21 97 -75 213 -57 121 -73 176 -65 230 12 75 -51
222 -189 444 -40 64 -106 184 -147 266 -66 134 -82 158 -149 225 -136 137
-157 151 -263 167 -50 8 -126 18 -168 22 -42 5 -81 11 -87 15 -6 3 -120 7
-254 8 -224 1 -249 3 -322 24 -44 13 -88 24 -97 24 -10 0 -58 21 -106 46 -48
25 -117 56 -152 69 -60 21 -68 22 -110 9 -54 -16 -168 -18 -260 -4 -226 35
-247 44 -363 159 -42 42 -101 96 -132 121 -31 25 -82 76 -113 113 -62 75 -76
85 -113 79z m-577 -430 c50 -24 87 -52 137 -104 62 -64 71 -70 96 -64 80 20
88 19 123 -18 39 -40 49 -85 50 -218 1 -42 5 -80 11 -83 5 -3 47 -6 92 -7 136
-1 311 -42 357 -82 25 -21 92 -53 141 -66 25 -6 55 -18 68 -26 13 -9 64 -20
114 -25 49 -5 93 -11 97 -13 16 -10 239 16 299 34 37 12 103 25 147 30 44 5
115 14 159 21 58 8 93 8 133 0 32 -6 62 -7 71 -2 10 5 41 14 71 21 43 10 69
26 135 83 108 94 170 139 237 175 52 28 57 29 84 15 21 -11 45 -14 89 -9 67 6
149 -10 194 -40 68 -44 222 -225 222 -260 0 -18 -6 -20 -63 -16 -71 5 -110
-11 -297 -122 -52 -31 -160 -82 -240 -113 -148 -57 -252 -102 -304 -130 -16
-9 -52 -18 -80 -20 -147 -10 -181 -18 -236 -53 -30 -20 -73 -42 -95 -49 -22
-8 -60 -23 -84 -34 -39 -18 -51 -19 -116 -10 -64 9 -99 22 -200 76 -84 45
-243 117 -257 117 -10 0 -39 8 -65 19 -26 10 -84 24 -128 30 -75 11 -184 47
-230 76 -11 8 -39 18 -62 25 -29 7 -58 26 -90 59 -53 53 -84 67 -172 77 -51 5
-67 3 -117 -20 -32 -15 -81 -44 -109 -65 -114 -86 -135 -93 -267 -99 -108 -4
-122 -3 -146 15 -18 13 -52 22 -102 27 -41 4 -87 14 -103 23 -62 32 -100 -9
-112 -120 l-7 -68 37 -35 c20 -18 42 -34 48 -34 34 -1 207 -114 207 -136 0
-24 -30 -37 -76 -31 -47 5 -77 28 -218 163 -70 67 -75 90 -36 165 33 64 36 85
18 124 -9 21 -9 31 0 46 31 48 2 66 -83 50 -63 -12 -75 -17 -130 -61 -22 -17
-62 -42 -90 -55 -64 -29 -79 -47 -99 -119 -18 -61 -55 -106 -87 -106 -24 0
-25 33 -3 86 11 27 14 54 10 89 -3 27 -2 55 2 61 13 20 86 51 137 59 49 7 165
60 165 76 0 4 25 17 55 28 110 41 152 68 158 100 4 20 17 35 37 46 46 24 50
59 9 101 -32 34 -37 35 -89 31 -30 -2 -75 -12 -100 -23 -38 -15 -73 -18 -215
-19 l-170 0 -67 34 c-68 35 -96 67 -84 96 6 16 8 16 34 -1 22 -15 53 -19 164
-22 123 -4 140 -2 170 16 18 11 50 23 70 26 21 4 62 18 90 31 45 21 68 25 148
25 89 0 101 -2 170 -36 41 -19 99 -44 129 -54 31 -10 82 -30 114 -44 32 -14
64 -26 72 -26 23 0 28 -20 15 -61 -11 -33 -11 -45 4 -84 21 -54 58 -100 96
-120 25 -13 30 -13 54 6 35 27 33 49 -9 99 -40 47 -43 77 -20 154 8 27 15 58
15 68 0 11 -24 45 -53 76 -30 31 -68 78 -85 103 -17 25 -43 54 -59 64 -35 22
-73 64 -73 81 0 31 79 20 173 -24z m3193 -780 c18 -26 42 -67 54 -92 13 -25
33 -58 46 -73 13 -16 24 -33 24 -38 0 -19 -20 -7 -68 39 -68 65 -101 88 -140
95 -34 7 -102 52 -102 68 0 13 27 11 49 -2 27 -18 68 -4 75 26 9 37 27 30 62
-23z"></path>
<path d="M1425 2235 c-24 -23 -25 -31 -25 -133 0 -129 13 -210 39 -235 17 -17
19 -17 35 -2 9 9 16 26 16 38 3 128 11 249 18 277 19 75 -31 108 -83 55z"></path>
</g>
</svg>