 <svg version="1.0" xmlns="http://www.w3.org/2000/svg" width="700.000000pt" height="670.000000pt" viewBox="0 0 700.000000 670.000000" preserveAspectRatio="xMidYMid meet">
<metadata>
Created by potrace 1.12, written by Peter Selinger 2001-2015
</metadata>
<g transform="translate(0.000000,670.000000) scale(0.100000,-0.100000)" fill="#000000" stroke="none">
<path d="M3070 6550 c-193 -14 -450 -59 -605 -105 -27 -8 -77 -22 -110 -31
-63 -17 -81 -23 -210 -74 -44 -17 -93 -37 -110 -43 -16 -7 -106 -50 -200 -97
-257 -129 -484 -282 -685 -460 -84 -74 -262 -256 -337 -345 -114 -134 -269
-354 -336 -475 -96 -176 -105 -196 -196 -415 -8 -18 -20 -51 -57 -145 -23 -62
-74 -237 -74 -257 0 -11 -6 -39 -14 -64 -59 -188 -95 -617 -77 -918 11 -177
18 -226 53 -406 19 -98 24 -123 55 -235 44 -165 150 -454 203 -551 5 -10 32
-59 61 -110 28 -52 65 -118 81 -148 68 -125 246 -363 386 -515 271 -295 581
-529 942 -713 63 -32 129 -63 145 -70 17 -7 57 -24 89 -38 224 -99 559 -186
871 -227 134 -18 647 -18 775 0 458 63 838 181 1165 361 44 24 104 57 134 73
30 16 69 41 86 54 18 13 35 24 39 24 11 0 194 133 295 215 112 91 261 236 386
375 91 101 284 361 312 420 4 8 19 33 34 55 15 22 58 101 96 175 170 330 271
652 330 1050 26 176 26 674 0 835 -79 490 -199 831 -428 1218 -322 541 -820
998 -1379 1264 -229 109 -318 142 -580 218 -41 12 -99 26 -233 55 -204 45
-647 69 -907 50z m575 -90 c198 -23 256 -32 340 -50 229 -49 432 -112 625
-195 324 -138 674 -366 910 -591 36 -34 76 -72 90 -85 110 -105 289 -321 396
-480 41 -60 74 -111 74 -113 0 -2 19 -35 42 -72 39 -65 144 -279 180 -369 38
-91 71 -182 79 -210 5 -16 15 -52 23 -80 33 -117 58 -213 67 -260 5 -27 18
-99 29 -160 31 -162 39 -623 15 -820 -16 -134 -44 -295 -66 -380 -6 -22 -17
-67 -26 -100 -68 -265 -229 -622 -392 -870 -157 -240 -401 -515 -616 -694
-150 -126 -386 -290 -490 -343 -16 -8 -69 -35 -117 -61 -374 -198 -819 -319
-1283 -347 -321 -20 -664 12 -980 91 -128 32 -384 115 -399 130 -6 5 -16 9
-23 9 -27 0 -342 159 -473 239 -442 270 -816 648 -1077 1091 -24 41 -48 82
-53 90 -33 55 -106 203 -126 256 -13 35 -32 83 -43 106 -38 80 -104 283 -120
368 -6 30 -18 84 -26 120 -46 203 -59 347 -59 655 0 243 3 319 17 400 10 55
25 141 33 190 16 89 34 168 54 228 5 18 19 64 30 102 104 358 340 781 614
1100 123 144 364 373 481 458 74 54 293 200 345 230 66 39 366 187 377 187 6
0 35 11 64 24 209 91 626 190 889 209 106 8 522 6 595 -3z"></path>
<path d="M3083 6320 c-49 -11 -101 -56 -126 -108 -29 -63 -31 -218 -3 -272 50
-96 111 -139 196 -140 104 0 174 50 210 153 25 72 25 127 -1 204 -46 136 -145
195 -276 163z m100 -92 c34 -18 45 -37 62 -112 28 -120 -11 -226 -82 -226 -70
0 -105 64 -107 190 -1 73 2 89 22 117 19 27 32 34 75 42 5 0 18 -4 30 -11z"></path>
<path d="M3545 6308 c-2 -7 -9 -49 -15 -93 -5 -44 -15 -114 -21 -155 -28 -190
29 -267 203 -278 70 -4 81 -2 123 23 29 17 52 39 60 59 19 45 53 280 54 372 1
41 0 42 -36 47 -21 2 -41 2 -45 -2 -4 -3 -14 -64 -23 -136 -27 -206 -33 -232
-62 -255 -14 -11 -39 -20 -55 -20 -38 0 -85 25 -93 50 -7 23 10 228 27 314 10
53 9 60 -7 72 -24 18 -104 18 -110 2z"></path>
<path d="M4116 6217 c-21 -16 -25 -67 -6 -78 8 -5 33 -17 55 -27 22 -10 39
-22 39 -28 -1 -5 -27 -89 -59 -187 -31 -98 -55 -183 -52 -190 6 -16 81 -42 95
-33 6 3 27 57 47 119 20 61 40 121 45 132 5 11 14 38 20 60 18 71 26 74 121
50 21 -5 27 -2 37 20 16 34 15 65 0 69 -93 28 -258 80 -273 86 -42 17 -54 18
-69 7z"></path>
<path d="M2365 6168 c-82 -27 -156 -55 -164 -63 -12 -12 -3 -46 59 -234 40
-122 78 -228 84 -236 10 -13 23 -11 96 11 47 14 117 37 155 51 39 14 76 26 83
29 26 8 3 84 -26 84 -10 0 -59 -13 -110 -30 -50 -16 -98 -27 -107 -24 -17 7
-40 76 -32 97 3 8 41 25 84 39 67 21 78 28 81 49 2 13 -3 33 -11 43 -14 19
-16 19 -73 1 -33 -10 -74 -18 -93 -19 -30 -1 -35 3 -47 37 -12 33 -11 40 4 55
10 9 57 28 105 41 55 16 92 31 98 42 11 21 -3 64 -23 71 -7 3 -80 -17 -163
-44z"></path>
<path d="M4623 6038 c-6 -7 -26 -42 -46 -78 -19 -36 -69 -125 -111 -199 -42
-73 -76 -140 -76 -147 0 -28 225 -149 296 -160 76 -11 141 39 151 115 4 26 0
47 -12 65 -21 32 -7 56 32 56 15 0 39 14 59 34 52 52 45 118 -17 179 -17 17
-77 51 -192 111 -79 42 -72 39 -84 24z m142 -153 c63 -37 70 -49 55 -85 -20
-48 -42 -54 -99 -29 -68 29 -86 50 -71 81 19 35 41 58 57 58 8 0 34 -11 58
-25z m-101 -187 c62 -42 73 -59 60 -95 -16 -46 -53 -52 -124 -18 -47 23 -60
34 -60 51 0 32 39 94 59 94 9 0 38 -15 65 -32z"></path>
<path d="M1948 5999 c-21 -11 -38 -23 -38 -28 0 -4 49 -108 110 -230 67 -135
116 -221 124 -221 22 0 86 40 86 53 0 25 -217 442 -231 444 -8 1 -31 -7 -51
-18z"></path>
<path d="M1620 5804 c-74 -42 -220 -145 -220 -156 0 -8 45 -73 137 -199 29
-39 72 -100 95 -135 24 -35 51 -66 60 -69 11 -4 52 17 115 61 161 109 189 144
180 222 -7 61 -47 101 -113 110 -47 7 -49 9 -46 37 7 87 -8 117 -71 146 -56
25 -62 24 -137 -17z m90 -94 c11 -11 20 -30 20 -43 0 -37 -95 -115 -125 -103
-16 6 -55 64 -55 83 0 12 107 82 128 83 6 0 21 -9 32 -20z m134 -171 c41 -32
32 -64 -33 -117 -29 -23 -60 -42 -68 -40 -8 2 -29 22 -46 45 l-31 43 24 25
c23 24 95 65 116 65 6 0 23 -10 38 -21z"></path>
<path d="M5074 5638 c-38 -46 -72 -85 -75 -88 -18 -14 -169 -201 -169 -209 0
-13 59 -61 75 -61 7 0 41 30 74 66 52 57 64 65 85 60 31 -8 50 -40 43 -75 -6
-29 -34 -112 -51 -150 -10 -21 -6 -28 33 -62 46 -41 59 -47 65 -26 32 106 58
185 65 196 5 8 32 16 62 19 61 5 101 34 125 91 18 42 18 75 0 109 -27 52 -211
212 -243 212 -13 0 -45 -30 -89 -82z m191 -108 c44 -45 48 -51 37 -74 -6 -14
-23 -33 -37 -42 -21 -14 -30 -15 -52 -5 -38 17 -103 71 -103 84 0 17 72 87 90
87 9 0 38 -22 65 -50z"></path>
<path d="M3200 5684 c-234 -20 -369 -44 -560 -101 -672 -198 -1238 -701 -1512
-1343 -70 -164 -107 -290 -157 -530 -35 -165 -37 -528 -5 -735 37 -235 103
-449 206 -663 72 -150 125 -236 245 -403 139 -192 426 -453 648 -589 80 -49
254 -137 335 -170 30 -12 66 -26 80 -32 278 -113 724 -178 1031 -149 280 26
513 79 719 163 325 134 552 282 792 517 312 305 522 662 634 1078 15 54 28
112 31 128 2 17 12 66 21 110 25 121 24 592 -2 730 -53 289 -154 577 -267 761
-21 35 -39 68 -39 72 0 4 -17 32 -37 62 -179 267 -411 504 -670 683 -45 31
-85 57 -87 57 -3 0 -29 14 -58 32 -201 119 -464 220 -718 274 -163 35 -491 60
-630 48z m435 -100 c187 -23 344 -62 530 -131 66 -24 307 -138 350 -165 276
-174 436 -312 628 -538 37 -43 186 -259 200 -290 4 -8 17 -31 28 -50 134 -224
241 -564 269 -855 58 -604 -116 -1181 -504 -1665 -272 -339 -700 -624 -1126
-749 -326 -95 -677 -123 -980 -77 -153 24 -223 36 -255 46 -16 5 -64 19 -105
30 -346 97 -699 308 -975 585 -173 172 -288 324 -398 522 -50 91 -147 311
-147 334 0 8 -4 19 -8 25 -11 12 -66 223 -87 334 -35 182 -35 571 0 767 60
337 194 656 389 928 28 39 53 72 56 75 3 3 23 28 45 55 147 184 360 366 595
510 90 54 293 155 314 155 7 0 16 4 21 9 6 5 26 14 45 20 19 5 62 19 95 31
159 56 435 106 615 113 120 4 284 -4 405 -19z"></path>
<path d="M3642 5338 c-70 -11 -163 -59 -212 -110 -22 -22 -61 -73 -87 -112
-93 -144 -118 -178 -133 -186 -8 -4 -73 -11 -145 -14 -71 -4 -161 -14 -200
-22 -38 -8 -73 -14 -78 -14 -4 0 -34 25 -67 55 -114 105 -230 165 -383 200
-131 29 -243 11 -281 -47 -21 -32 -60 -147 -82 -243 -16 -67 -19 -113 -16
-274 2 -187 1 -197 -23 -260 -36 -96 -56 -176 -62 -259 -3 -39 -11 -79 -18
-88 -11 -15 -17 -15 -71 5 -90 34 -165 52 -184 46 -70 -22 21 -97 178 -145 40
-12 76 -29 80 -38 5 -10 16 -47 25 -85 9 -37 24 -96 33 -131 20 -81 16 -109
-16 -118 -14 -4 -52 -15 -85 -24 -83 -24 -124 -51 -125 -81 0 -22 87 -15 162
12 90 33 105 32 126 -6 9 -18 39 -65 65 -105 27 -41 47 -82 45 -91 -5 -25
-116 -77 -220 -102 -306 -74 -437 -150 -483 -280 -22 -62 -19 -120 11 -251 35
-153 31 -143 56 -137 38 10 55 -8 63 -70 14 -115 56 -146 94 -72 37 70 139
149 175 136 8 -3 18 -23 22 -44 9 -51 42 -115 57 -110 7 2 31 41 55 87 49 97
106 170 131 170 24 0 111 -102 111 -128 0 -12 -29 -63 -64 -116 -123 -181
-138 -328 -56 -551 63 -171 139 -259 285 -329 105 -51 141 -63 218 -76 123
-20 321 42 452 141 79 60 117 69 277 69 209 0 273 -24 356 -132 52 -69 84 -93
160 -120 81 -29 179 -28 262 2 249 90 466 291 526 489 46 151 -26 418 -140
524 -34 31 -139 84 -186 93 -39 8 -44 28 -16 61 12 16 40 57 61 92 39 64 39
65 37 167 -1 118 -14 104 133 145 44 12 89 28 100 36 33 22 52 15 114 -40 33
-30 81 -65 108 -79 l48 -25 -3 -137 c-4 -158 0 -194 29 -224 27 -30 56 -28
112 7 53 34 84 87 94 158 7 55 41 97 70 86 10 -4 33 -17 52 -30 19 -13 41 -23
49 -23 61 0 190 71 210 115 7 14 12 70 12 123 0 81 -4 105 -24 147 -48 103
-165 180 -366 241 -139 42 -241 79 -307 111 -90 43 -93 52 -41 163 39 84 54
100 94 100 27 0 40 -10 83 -59 48 -55 55 -59 105 -65 64 -8 105 6 86 29 -7 8
-28 17 -49 20 -77 13 -77 13 -104 74 -24 57 -27 59 -70 65 -25 4 -51 14 -58
22 -18 22 -7 250 14 271 11 12 46 18 119 24 106 7 158 22 158 45 0 29 -41 36
-164 29 -143 -8 -128 -17 -204 129 -56 106 -59 121 -38 151 73 105 103 217 87
325 -12 86 -41 148 -101 216 -34 38 -51 68 -55 93 -24 167 -52 240 -97 255
-45 16 -79 -3 -112 -62 -17 -28 -34 -52 -39 -52 -5 0 -25 14 -44 30 -19 17
-45 30 -60 30 -31 0 -168 -67 -235 -115 -26 -19 -50 -35 -52 -35 -2 0 -21 26
-42 58 -22 31 -64 91 -95 132 -108 144 -120 152 -207 138z m108 -115 c89 -93
145 -185 145 -241 0 -37 -5 -48 -30 -68 -36 -30 -87 -28 -180 6 -119 44 -215
3 -215 -91 0 -84 102 -141 158 -89 12 12 22 25 22 30 0 13 -28 38 -61 55 -48
25 -32 45 36 45 99 0 170 -86 151 -182 -10 -52 -43 -93 -98 -123 -45 -24 -64
-29 -133 -29 -118 -1 -200 39 -241 116 -22 42 -18 191 7 271 44 139 155 277
276 341 73 39 88 36 163 -41z m774 -85 c22 -37 48 -149 44 -198 l-3 -45 -105
-27 c-198 -51 -171 -51 -247 -3 -38 23 -89 51 -114 62 -26 12 -49 25 -53 31
-14 23 172 142 223 142 11 0 35 -18 54 -40 19 -22 42 -40 53 -40 17 0 94 66
94 81 0 18 20 59 30 59 5 0 16 -10 24 -22z m-2169 -83 c107 -32 305 -157 313
-197 2 -10 -9 -28 -24 -41 -16 -14 -24 -29 -20 -35 12 -20 61 -13 173 24 97
32 123 36 246 41 170 7 172 6 179 -101 6 -97 35 -155 96 -196 90 -59 186 -71
358 -44 39 6 42 4 90 -46 57 -60 79 -73 154 -89 105 -23 128 -43 145 -128 9
-46 68 -89 146 -107 94 -22 195 -7 308 47 l65 30 29 -34 c38 -45 77 -122 77
-152 0 -35 -26 -53 -109 -76 -40 -11 -79 -26 -87 -32 -21 -17 -17 -57 6 -64
27 -9 50 -2 151 45 44 20 61 10 76 -45 16 -62 16 -103 2 -144 -12 -35 -25 -40
-119 -43 -62 -3 -65 -4 -68 -29 -3 -25 0 -27 57 -33 78 -9 84 -25 41 -111 -42
-85 -45 -87 -111 -70 -29 8 -66 15 -81 15 -23 0 -28 -4 -28 -26 0 -21 9 -29
55 -49 50 -23 54 -27 43 -44 -31 -51 -155 -77 -438 -91 -192 -10 -250 -19
-357 -55 -43 -14 -100 -30 -128 -35 -27 -5 -75 -16 -105 -24 -76 -22 -88 -21
-167 19 -75 37 -180 68 -216 63 -16 -2 -31 -20 -52 -63 -44 -90 -63 -113 -101
-125 -61 -21 -106 25 -127 128 -7 34 -15 64 -18 67 -4 3 -31 15 -60 25 -83 31
-129 27 -376 -30 -100 -24 -146 -25 -162 -6 -10 12 -9 20 4 40 21 31 13 46
-25 46 -35 0 -65 27 -108 98 -43 70 -41 85 8 105 76 30 64 76 -14 56 -39 -10
-50 -9 -61 2 -25 26 -73 233 -61 265 5 12 13 15 34 10 158 -39 202 -43 202
-18 -1 23 -33 45 -100 67 -163 53 -160 49 -160 166 0 128 72 319 171 456 80
111 80 141 0 82 -68 -49 -76 -41 -79 81 -5 175 47 345 121 398 39 27 135 30
212 7z m1773 -189 c85 -43 114 -93 120 -202 4 -79 4 -82 -24 -108 -49 -45 -64
-36 -65 37 -1 34 -4 73 -8 87 -15 56 -75 23 -98 -55 -22 -71 -19 -77 50 -99
25 -8 13 -26 -57 -86 -60 -50 -76 -54 -76 -19 0 14 -7 19 -30 19 -24 0 -30 4
-30 21 0 21 -14 22 -64 3 -13 -5 -16 1 -16 30 0 25 -5 36 -14 36 -26 0 -27 18
-5 67 12 26 22 49 24 51 1 1 15 -4 31 -13 41 -21 91 -19 133 7 48 30 59 41 67
71 5 23 1 29 -30 43 -31 16 -40 16 -78 3 -23 -7 -55 -26 -70 -41 -43 -42 -51
-36 -46 32 3 40 10 66 24 81 57 63 176 79 262 35z m507 -60 c50 -21 77 -81 83
-182 4 -66 0 -94 -17 -143 -50 -145 -132 -228 -283 -285 -57 -21 -163 -25
-198 -6 -72 37 -125 128 -118 202 3 30 10 36 68 65 36 18 86 36 113 39 46 7
49 6 88 -36 42 -44 48 -75 14 -75 -15 0 -21 8 -23 33 -3 33 -4 34 -40 27 -40
-7 -52 -19 -52 -50 0 -47 75 -103 117 -88 40 14 63 46 63 86 0 48 -21 86 -83
154 -52 58 -67 88 -67 139 0 70 36 96 165 119 95 17 130 17 170 1z m54 -1505
c29 -22 20 -41 -18 -41 -33 0 -54 20 -45 44 8 21 33 20 63 -3z m163 -148 c68
-68 98 -68 98 -2 0 28 49 25 145 -9 119 -43 157 -65 214 -127 68 -75 91 -127
91 -207 0 -54 -4 -67 -26 -91 -37 -40 -58 -32 -64 23 -7 64 -24 56 -28 -12 -2
-44 -7 -60 -21 -68 -36 -19 -53 9 -62 105 -4 48 -12 92 -17 97 -15 15 -35 -28
-42 -87 l-5 -50 -60 -5 -59 -5 -13 -94 c-18 -137 -56 -197 -97 -156 -17 17
-15 57 5 135 5 19 9 64 9 101 0 61 -2 67 -32 96 -18 17 -48 38 -66 47 -18 9
-70 55 -116 101 -46 47 -88 85 -93 85 -6 0 -35 -20 -65 -45 -30 -25 -59 -45
-64 -45 -5 0 -22 -7 -39 -16 -93 -49 -171 -56 -267 -23 -108 36 -198 4 -278
-97 -37 -47 -64 -69 -112 -93 -35 -17 -87 -44 -117 -60 -29 -16 -91 -38 -137
-51 -71 -18 -101 -21 -201 -17 -67 3 -146 13 -183 23 -46 12 -111 18 -220 20
-174 4 -179 6 -200 86 -6 21 -29 72 -51 113 -43 80 -50 138 -26 205 19 55 26
63 43 49 8 -6 14 -17 14 -23 0 -7 12 -27 28 -45 48 -58 140 -75 239 -46 65 19
93 42 121 98 13 25 31 49 41 52 20 6 70 -12 194 -69 42 -20 84 -36 93 -36 9 0
39 11 67 26 75 37 225 73 376 89 73 8 170 21 215 29 164 31 420 54 568 53
l147 -2 53 -52z m-2167 -3 c0 -22 -39 -19 -43 3 -3 15 1 18 20 15 12 -2 23
-10 23 -18z m-945 -277 c77 -94 80 -257 7 -349 -37 -45 -74 -51 -139 -21 -92
42 -158 128 -158 207 0 55 47 130 105 167 40 27 60 33 102 33 47 0 54 -3 83
-37z m512 -22 c13 -5 50 -33 84 -63 48 -43 74 -58 125 -72 83 -23 123 -48 143
-90 38 -80 6 -151 -78 -174 -75 -20 -199 -16 -251 9 -130 61 -221 268 -154
353 33 42 82 56 131 37z m1911 -26 c73 -30 110 -117 87 -201 -15 -54 -92 -142
-155 -180 -64 -37 -164 -74 -202 -74 -39 0 -89 33 -109 72 -8 15 -14 48 -14
73 0 46 1 47 123 166 112 111 175 156 218 158 9 1 33 -6 52 -14z m-1193 -277
c5 -13 11 -40 15 -60 14 -86 71 -92 152 -15 l55 52 127 -3 c102 -3 145 1 227
19 56 12 109 19 117 16 9 -3 19 -19 23 -34 3 -15 15 -55 25 -88 32 -97 33
-102 12 -114 -12 -6 -178 -15 -394 -22 -206 -6 -414 -13 -464 -16 l-90 -4 -60
52 c-82 70 -84 76 -43 140 19 30 42 60 50 67 21 17 89 30 171 31 61 1 68 -1
77 -21z m-433 -174 c69 -19 93 -41 209 -191 118 -154 160 -233 181 -342 15
-77 15 -87 -1 -159 -22 -95 -68 -184 -115 -223 -20 -16 -63 -38 -97 -48 -59
-19 -63 -19 -165 -1 -121 22 -153 33 -233 78 -94 54 -152 115 -196 207 -100
210 -91 386 26 545 55 75 123 119 218 142 74 17 88 17 173 -8z m1766 -72 c132
-59 234 -231 225 -382 -5 -95 -84 -255 -166 -338 -149 -151 -410 -265 -532
-232 -92 25 -180 184 -180 327 0 135 82 360 170 467 72 86 145 139 245 175 47
17 184 7 238 -17z m-535 -78 c2 -12 -19 -59 -48 -108 -28 -48 -65 -119 -82
-158 -32 -75 -68 -233 -68 -297 0 -20 -6 -45 -13 -55 -12 -16 -17 -16 -81 -2
-84 20 -245 20 -351 1 -134 -24 -122 -35 -127 118 -6 151 -19 200 -100 365
-32 64 -48 106 -42 112 22 22 137 33 424 40 168 4 346 6 395 6 84 -1 90 -2 93
-22z"></path>
<path d="M4016 3828 c-45 -45 -60 -101 -47 -173 22 -120 108 -163 177 -88 82
89 43 268 -64 289 -27 5 -37 1 -66 -28z m105 -126 c-6 -11 -11 -32 -11 -46 0
-23 -4 -26 -34 -26 -33 0 -35 2 -44 47 -6 26 -9 49 -8 51 2 1 15 -3 29 -9 21
-10 29 -9 43 5 22 23 40 6 25 -22z"></path>
<path d="M2529 3823 c-15 -9 -34 -32 -43 -50 -20 -43 -21 -154 -1 -193 67
-130 215 -65 215 95 0 124 -88 200 -171 148z m85 -122 c2 -9 7 -30 11 -46 6
-30 5 -31 -35 -27 -39 4 -40 5 -40 42 0 21 -5 40 -10 42 -6 2 7 4 29 4 29 1
42 -3 45 -15z"></path>
<path d="M3273 3551 c-48 -12 -82 -38 -89 -68 -19 -72 91 -122 226 -103 69 10
106 29 122 66 15 31 -2 64 -45 89 -35 21 -159 30 -214 16z"></path>
<path d="M3215 2680 c-9 -14 25 -39 61 -46 36 -7 193 2 220 13 38 14 5 23 -88
23 -57 1 -122 5 -146 9 -23 5 -45 5 -47 1z"></path>
<path d="M3525 2680 c-3 -5 1 -10 9 -10 8 0 18 5 21 10 3 6 -1 10 -9 10 -8 0
-18 -4 -21 -10z"></path>
<path d="M1176 5458 c-11 -13 -35 -40 -53 -61 -21 -24 -32 -45 -28 -54 3 -9
37 -67 75 -128 39 -62 70 -118 70 -125 0 -14 -21 -8 -119 37 -132 60 -139 63
-159 63 -21 0 -122 -102 -122 -123 0 -7 28 -36 63 -64 34 -29 82 -71 107 -93
82 -75 208 -170 223 -170 17 0 47 36 47 56 0 6 -57 59 -127 118 -175 148 -185
167 -57 113 43 -19 99 -43 124 -55 161 -73 154 -71 179 -51 12 10 23 26 23 36
1 18 -41 92 -132 230 -28 41 -50 78 -50 83 0 5 -6 10 -12 13 -10 3 -10 8 -2
17 9 9 37 -10 120 -81 60 -51 123 -106 139 -121 17 -15 35 -28 40 -28 6 0 25
18 43 40 l33 40 -23 22 c-13 13 -50 46 -82 73 -33 28 -107 92 -165 143 -58 50
-112 92 -121 92 -9 0 -24 -10 -34 -22z"></path>
<path d="M5505 5229 c-55 -45 -142 -114 -192 -155 -51 -41 -93 -79 -93 -84 0
-6 35 -52 78 -102 42 -51 90 -110 106 -130 16 -21 36 -38 45 -38 21 1 61 34
61 52 0 7 -32 51 -70 96 -39 46 -70 88 -70 92 0 10 71 70 83 70 8 0 51 -45
110 -115 l25 -30 26 24 c14 14 26 31 26 39 0 8 -23 42 -50 77 -56 71 -56 83
-3 117 l36 21 36 -39 c20 -22 52 -61 71 -87 22 -29 43 -46 56 -47 22 0 54 28
54 48 0 17 -210 272 -224 272 -6 -1 -56 -37 -111 -81z"></path>
<path d="M750 4804 c-49 -9 -88 -38 -121 -88 -30 -45 -34 -59 -34 -117 0 -62
3 -69 43 -122 53 -70 122 -112 214 -128 112 -20 190 15 241 110 47 86 30 168
-53 251 -56 56 -125 88 -201 94 -35 2 -75 2 -89 0z m158 -148 c108 -66 134
-118 87 -174 -30 -36 -54 -40 -126 -18 -94 29 -179 102 -179 154 0 29 25 66
50 76 35 13 112 -4 168 -38z"></path>
<path d="M5959 4756 c-3 -3 -38 -9 -79 -15 -41 -5 -145 -21 -230 -35 -85 -14
-158 -26 -162 -26 -15 0 -8 -38 13 -64 19 -24 24 -26 74 -20 l53 7 36 -71 c20
-40 36 -74 36 -77 0 -3 -17 -23 -37 -46 l-37 -41 23 -44 c13 -24 30 -44 37
-44 11 0 214 189 346 323 41 41 41 53 -3 124 -18 30 -55 44 -70 29z m-59 -113
c-1 -18 -102 -113 -120 -113 -14 0 -51 62 -48 80 4 21 169 53 168 33z"></path>
<path d="M6155 4325 c-27 -7 -99 -27 -160 -45 -60 -17 -130 -36 -155 -42 -25
-6 -49 -14 -54 -19 -6 -5 -20 -9 -33 -9 -31 0 -38 -22 -24 -71 13 -43 19 -45
85 -27 38 10 52 9 100 -7 31 -11 56 -24 56 -31 0 -7 -38 -44 -85 -83 -47 -40
-85 -77 -85 -84 1 -31 29 -102 40 -99 7 1 66 49 132 105 65 56 128 106 138
111 13 6 30 3 54 -8 19 -9 41 -16 49 -16 8 0 31 -7 52 -16 43 -18 59 -9 50 27
-12 48 -38 65 -157 103 -72 22 -118 42 -118 50 0 8 33 22 88 36 110 29 117 35
102 88 -6 23 -14 43 -18 45 -4 2 -29 -1 -57 -8z"></path>
<path d="M473 4324 c-11 -5 -74 -191 -88 -264 -4 -19 -12 -40 -17 -47 -18 -23
-5 -56 27 -65 40 -10 47 -1 80 110 17 54 34 92 42 92 12 0 38 -32 183 -232 46
-63 73 -91 102 -104 23 -10 42 -14 47 -8 4 5 23 61 41 124 18 63 39 136 47
162 8 26 16 62 16 80 2 32 1 33 -40 36 -39 3 -43 1 -49 -25 -23 -100 -57 -196
-71 -200 -9 -3 -77 84 -163 211 -40 59 -75 98 -105 116 -18 11 -34 20 -36 19
-2 0 -9 -3 -16 -5z"></path>
<path d="M533 3397 c-6 -13 -16 -50 -23 -83 -21 -100 -17 -98 -131 -89 -60 4
-99 3 -99 -3 0 -5 28 -26 63 -47 112 -69 113 -69 67 -163 -30 -63 -37 -92 -21
-92 5 0 41 27 80 60 56 47 76 58 89 51 23 -13 126 -101 130 -112 2 -5 8 -9 13
-9 14 0 11 38 -5 68 -28 55 -48 110 -44 127 3 19 24 34 111 80 73 39 62 49
-47 42 -65 -4 -99 -2 -109 6 -7 7 -22 48 -32 92 -22 94 -28 104 -42 72z"></path>
<path d="M6117 3403 c-2 -5 -12 -42 -22 -83 -10 -41 -23 -81 -28 -88 -9 -11
-32 -12 -108 -7 -63 5 -99 3 -103 -3 -3 -6 4 -14 16 -18 30 -9 158 -94 158
-105 0 -4 -16 -42 -35 -85 -33 -72 -42 -104 -29 -104 3 0 36 27 75 60 38 33
78 60 89 60 10 0 48 -25 85 -56 36 -30 69 -54 74 -52 5 2 -7 41 -25 88 -38 92
-39 109 -9 125 80 41 145 81 145 89 0 5 -41 7 -98 3 -54 -3 -103 -2 -110 2 -7
4 -22 46 -34 94 -19 80 -30 100 -41 80z"></path>
<path d="M5717 2333 c-21 -24 -69 -122 -65 -133 2 -4 45 -52 96 -105 50 -53
92 -103 92 -111 0 -17 -26 -14 -133 12 -32 8 -83 17 -112 20 l-53 7 -24 -39
c-14 -22 -27 -46 -31 -54 -4 -8 -12 -23 -19 -32 -17 -23 -4 -35 97 -89 44 -23
94 -51 110 -61 17 -10 37 -21 45 -25 8 -3 50 -26 92 -50 43 -23 84 -43 92 -43
15 0 46 47 46 69 0 9 -24 23 -215 126 -107 57 -101 53 -87 67 11 11 53 4 227
-37 33 -8 83 -17 110 -21 48 -6 52 -5 63 21 16 35 14 39 -137 194 -67 68 -121
128 -121 132 0 14 22 9 55 -12 17 -10 37 -22 45 -26 8 -4 64 -33 123 -65 60
-32 112 -58 117 -58 14 0 52 79 47 94 -3 7 -34 28 -69 46 -34 18 -103 55 -153
83 -222 123 -211 119 -238 90z"></path>
<path d="M728 2232 c-183 -90 -217 -110 -218 -129 0 -24 31 -83 44 -83 5 0 46
19 92 42 l83 41 20 -24 c33 -40 26 -65 -37 -132 -90 -97 -87 -90 -63 -141 12
-24 28 -46 35 -49 7 -3 32 19 57 50 24 30 58 68 76 84 32 28 34 28 74 14 56
-20 85 -19 128 6 55 31 76 66 76 124 0 41 -11 73 -62 178 -34 70 -68 127 -75
126 -7 0 -111 -49 -230 -107z m241 -85 c41 -84 20 -141 -47 -135 -29 2 -41 11
-64 43 -40 58 -37 90 10 114 59 32 77 27 101 -22z"></path>
<path d="M1189 1867 c-9 -7 -31 -23 -49 -37 -18 -14 -55 -43 -84 -65 -28 -22
-93 -72 -143 -110 -52 -39 -93 -77 -93 -87 0 -13 36 -67 60 -88 3 -3 35 -42
70 -88 77 -101 89 -109 124 -81 14 11 26 27 26 34 0 8 -29 50 -65 94 -36 44
-65 89 -65 100 0 19 58 62 83 61 10 -1 85 -84 108 -122 7 -11 13 -10 35 2 52
29 52 42 -4 109 -29 34 -52 68 -52 75 0 12 32 46 57 60 21 12 47 -10 112 -94
l63 -81 31 19 c18 10 33 25 35 33 1 7 -41 68 -94 134 -53 66 -98 126 -101 133
-6 15 -33 15 -54 -1z"></path>
<path d="M5259 1649 c-22 -23 -39 -51 -39 -61 0 -16 31 -70 211 -365 49 -80
64 -91 90 -67 30 27 32 52 9 89 -28 46 -22 68 36 128 50 52 55 53 122 26 33
-14 34 -13 68 23 39 44 41 49 15 65 -16 10 -382 168 -450 194 -20 8 -29 4 -62
-32z m189 -144 c72 -34 77 -50 30 -90 l-32 -27 -19 23 c-35 43 -69 108 -62
119 4 6 10 10 13 8 4 -2 35 -17 70 -33z"></path>
<path d="M1433 1459 c-18 -11 -42 -36 -54 -55 -30 -49 -21 -93 42 -199 46 -76
51 -89 41 -110 -14 -31 -53 -33 -98 -6 -32 19 -48 51 -58 111 -5 27 -14 40
-41 54 -28 15 -38 17 -48 7 -20 -20 -13 -102 13 -155 31 -61 74 -99 145 -125
50 -19 61 -20 98 -9 23 7 52 20 63 28 30 21 64 80 64 110 0 33 -32 101 -73
159 -19 25 -37 54 -40 64 -8 20 24 57 49 57 32 0 72 -39 85 -86 15 -49 56 -88
87 -82 14 3 17 13 14 58 -3 65 -34 117 -101 167 -37 28 -50 33 -99 33 -40 0
-66 -6 -89 -21z"></path>
<path d="M4903 1332 c-67 -53 -124 -105 -128 -114 -6 -17 14 -44 200 -276 98
-122 108 -129 143 -106 60 39 252 198 252 209 0 15 -43 55 -58 55 -7 0 -51
-29 -97 -65 -47 -36 -89 -65 -94 -65 -11 0 -71 67 -71 79 0 5 29 33 64 62 36
30 65 62 65 71 1 20 -28 58 -44 58 -5 0 -40 -25 -77 -55 -37 -30 -73 -52 -80
-49 -25 10 -59 64 -54 81 4 10 35 39 69 65 35 26 74 59 87 73 l23 25 -23 25
c-13 14 -31 25 -39 24 -9 0 -71 -44 -138 -97z"></path>
<path d="M1854 1182 c-33 -59 -184 -304 -205 -334 -10 -15 -19 -36 -19 -47 0
-22 65 -65 87 -57 7 3 25 26 41 52 15 26 36 58 48 72 l20 25 68 -36 c84 -45
120 -52 171 -34 58 20 97 74 103 142 4 46 1 61 -18 88 -35 52 -213 167 -257
167 -10 0 -27 -16 -39 -38z m145 -118 c46 -35 61 -53 61 -78 0 -29 -39 -66
-70 -66 -31 0 -101 34 -112 54 -11 19 48 116 69 116 9 0 32 -12 52 -26z"></path>
<path d="M4543 1087 c-78 -40 -147 -77 -153 -83 -13 -13 5 -70 26 -78 8 -3 35
6 61 19 37 19 51 21 59 12 7 -7 40 -66 74 -132 104 -200 113 -215 127 -215 8
0 32 9 53 20 38 19 51 42 31 54 -5 4 -33 52 -61 109 -29 56 -66 128 -82 160
-17 32 -28 63 -25 70 3 7 23 22 46 32 22 11 43 26 46 33 8 22 -18 67 -40 69
-11 1 -84 -30 -162 -70z"></path>
<path d="M2330 930 c-47 -25 -82 -64 -116 -130 -26 -49 -29 -65 -29 -146 0
-82 3 -95 25 -127 37 -52 71 -75 132 -91 45 -11 60 -11 103 1 147 43 238 256
171 400 -35 75 -97 113 -186 112 -44 0 -76 -6 -100 -19z m160 -92 c26 -19 30
-28 30 -72 0 -69 -28 -150 -68 -197 -29 -33 -39 -39 -73 -39 -30 0 -46 6 -64
26 -28 30 -30 55 -11 134 19 74 41 114 79 145 39 31 69 32 107 3z"></path>
<path d="M4085 906 c-27 -7 -86 -21 -130 -31 -137 -30 -130 -25 -128 -81 1
-27 8 -74 17 -104 8 -30 22 -84 30 -120 52 -230 48 -220 80 -220 16 0 70 9
120 20 50 11 115 26 144 32 68 15 77 26 58 72 -13 30 -19 36 -38 31 -13 -3
-61 -14 -107 -25 -99 -23 -116 -17 -126 40 -9 52 3 66 63 75 70 10 112 31 112
54 0 55 -24 62 -120 36 -30 -8 -62 -12 -71 -10 -17 6 -44 79 -34 95 6 10 37
19 153 46 41 9 75 22 78 28 2 6 0 25 -4 41 -10 36 -27 39 -97 21z"></path>
<path d="M2776 703 c-9 -71 -24 -178 -33 -239 -9 -62 -13 -119 -10 -129 5 -12
17 -15 44 -13 37 3 38 4 44 53 4 28 12 88 18 135 6 47 11 93 11 103 0 9 6 17
14 17 15 0 43 -54 106 -210 24 -58 48 -110 54 -116 15 -16 78 -26 94 -15 9 5
19 54 28 137 27 239 32 279 39 316 6 31 4 38 -15 48 -25 13 -70 5 -71 -13 -3
-67 -28 -230 -36 -238 -16 -16 -30 -3 -38 34 -4 17 -11 37 -15 42 -4 6 -24 51
-45 100 -20 50 -44 96 -53 103 -9 6 -39 12 -67 12 l-52 0 -17 -127z"></path>
<path d="M3419 801 c-101 -33 -146 -133 -103 -225 20 -40 62 -62 145 -75 86
-14 129 -35 129 -64 0 -61 -107 -85 -171 -38 -25 18 -37 21 -74 15 -57 -8 -60
-32 -8 -79 97 -89 287 -66 354 42 17 27 20 45 17 89 -8 90 -60 127 -208 149
-82 12 -113 51 -72 88 26 24 86 21 131 -5 l39 -22 36 19 c21 11 35 26 34 35
-2 8 -23 27 -47 44 -35 23 -56 29 -110 32 -36 2 -78 0 -92 -5z"></path>
</g>
</svg>