 <svg version="1.0" xmlns="http://www.w3.org/2000/svg" width="700.000000pt" height="860.000000pt" viewBox="0 0 700.000000 860.000000" preserveAspectRatio="xMidYMid meet">
<metadata>
Created by potrace 1.12, written by Peter Selinger 2001-2015
</metadata>
<g transform="translate(0.000000,860.000000) scale(0.100000,-0.100000)" fill="#000000" stroke="none">
<path d="M3476 8455 c-26 -71 -71 -191 -98 -265 -106 -282 -122 -378 -137
-805 l-8 -240 -36 -90 c-20 -49 -35 -91 -33 -92 2 -2 22 4 46 12 23 8 53 15
66 15 76 0 87 -121 18 -185 -39 -36 -67 -32 -107 17 l-34 41 -28 -47 c-38 -64
-65 -140 -65 -180 0 -49 11 -96 23 -96 5 0 34 23 63 50 86 82 161 100 185 46
9 -19 4 -39 -26 -111 -38 -93 -41 -131 -12 -149 13 -9 40 -3 125 27 123 43
173 46 236 15 45 -21 46 -21 67 -2 27 25 49 67 49 96 0 15 -17 41 -45 68 -59
58 -82 115 -65 164 22 66 76 74 132 19 21 -20 41 -34 44 -30 4 4 9 42 12 85 6
115 -32 237 -60 188 -25 -45 -54 -69 -77 -61 -56 17 -84 138 -39 169 12 9 35
16 51 16 l29 0 -7 288 c-3 162 -13 337 -22 402 -13 100 -85 409 -126 540 l-14
45 -6 -35 c-18 -98 -27 -361 -27 -768 0 -441 0 -452 -19 -452 -11 0 -22 4 -25
8 -2 4 -6 212 -7 462 -1 356 2 501 15 666 10 115 16 230 14 255 -3 43 -4 41
-52 -86z m74 -1671 l0 -204 -25 0 -25 0 0 203 c0 112 3 206 6 209 3 3 14 4 25
1 18 -5 19 -16 19 -209z"></path>
<path d="M2381 7585 c-137 -31 -250 -108 -296 -200 -29 -58 -27 -173 3 -239
36 -79 85 -132 156 -166 145 -72 320 -39 376 70 35 68 23 126 -37 181 -53 50
-92 64 -178 64 -69 0 -87 -4 -129 -27 l-48 -28 6 33 c9 48 37 79 101 112 52
27 67 30 154 30 68 0 113 -6 156 -20 166 -54 286 -201 255 -314 -19 -72 -77
-120 -163 -136 -45 -9 -44 -25 4 -42 38 -14 106 -8 157 12 30 13 32 13 32 -6
0 -32 -29 -79 -84 -137 l-51 -55 40 7 c141 26 280 150 319 285 31 108 13 241
-47 343 -57 97 -186 184 -332 223 -85 23 -312 29 -394 10z"></path>
<path d="M4275 7585 c-171 -32 -310 -114 -381 -226 -71 -113 -85 -286 -31
-402 49 -106 192 -217 302 -234 l40 -6 -27 22 c-36 29 -92 108 -106 150 -11
32 -11 33 11 28 118 -27 132 -28 171 -15 52 17 56 34 9 43 -190 35 -228 219
-74 358 147 133 423 154 536 41 30 -30 54 -88 42 -100 -3 -3 -21 6 -42 20 -45
31 -90 40 -160 33 -68 -7 -124 -36 -169 -88 -29 -35 -36 -51 -36 -86 0 -82 52
-141 148 -169 113 -33 243 0 325 84 56 58 84 112 99 189 30 163 -103 313 -320
358 -82 18 -243 18 -337 0z"></path>
<path d="M1565 6954 c-519 -70 -910 -296 -1157 -669 -266 -401 -359 -986 -233
-1468 130 -501 503 -1068 1153 -1755 l135 -144 -94 9 c-151 13 -373 8 -493
-11 -296 -48 -548 -165 -702 -328 -150 -158 -202 -356 -133 -502 111 -236 550
-406 1059 -409 198 -2 255 9 377 68 82 40 151 103 184 166 34 66 38 195 9 283
-40 120 -150 210 -297 241 -89 19 -263 19 -336 0 -139 -36 -247 -120 -301
-234 -26 -57 -30 -75 -30 -157 l0 -91 -60 14 c-202 46 -317 181 -288 336 15
82 47 141 106 201 127 126 358 196 651 196 344 0 629 -102 815 -291 161 -163
240 -368 240 -622 0 -422 -217 -763 -554 -869 -34 -10 -106 -22 -161 -25 -176
-10 -274 25 -390 138 l-73 71 -7 -32 c-18 -84 25 -217 96 -295 87 -94 214
-142 413 -154 l111 -6 -72 -72 c-130 -130 -339 -212 -563 -220 -84 -4 -133 -1
-184 11 -38 9 -71 14 -73 12 -20 -20 88 -117 163 -147 55 -23 71 -24 259 -24
220 1 310 13 495 66 453 132 789 441 910 839 51 167 55 201 55 430 0 163 -5
238 -18 309 -10 51 -17 94 -15 96 3 2 128 -102 493 -413 206 -176 353 -309
364 -331 6 -10 15 -130 22 -267 l13 -250 -35 -59 c-65 -113 -87 -177 -96 -286
-7 -91 7 -160 47 -223 78 -122 219 -106 287 31 55 113 32 295 -60 462 l-41 75
2 100 c4 168 22 407 32 426 16 29 839 734 848 725 1 -1 -5 -44 -15 -96 -25
-136 -25 -471 0 -589 122 -568 558 -939 1217 -1035 82 -12 156 -16 269 -13
171 5 211 15 292 70 42 28 97 93 88 102 -2 3 -33 -2 -69 -11 -91 -21 -287 -13
-395 16 -44 12 -126 44 -183 72 -84 41 -116 63 -175 122 l-72 72 111 6 c298
18 468 133 504 342 7 37 9 84 5 103 l-6 36 -67 -67 c-45 -45 -90 -78 -140
-102 -67 -34 -81 -37 -180 -41 -135 -5 -229 14 -339 68 -206 102 -352 291
-420 547 -24 87 -27 117 -27 273 -1 208 11 265 85 415 72 147 168 252 309 339
133 82 284 134 458 157 109 15 402 6 492 -15 222 -50 367 -141 429 -269 105
-214 -8 -388 -293 -452 l-28 -6 7 55 c24 199 -117 379 -337 431 -92 21 -248
19 -342 -5 -142 -36 -222 -97 -275 -209 -23 -49 -26 -69 -26 -156 0 -84 4
-108 23 -146 49 -100 162 -181 309 -221 159 -43 503 -24 760 42 495 128 686
382 526 701 -161 323 -691 534 -1234 491 -78 -7 -145 -10 -147 -7 -2 2 42 53
99 112 628 652 1037 1274 1169 1774 63 242 75 476 35 748 -117 809 -648 1312
-1477 1401 -342 36 -606 -14 -964 -184 -250 -119 -488 -280 -719 -486 -82 -74
-133 -100 -195 -100 -66 0 -114 27 -225 125 -382 336 -844 577 -1230 640 -111
18 -343 18 -480 -1z m910 -574 c330 -38 610 -161 837 -369 93 -85 123 -101
183 -101 64 0 99 18 190 101 388 350 936 466 1433 303 365 -120 680 -394 847
-739 96 -196 133 -340 142 -551 12 -294 -50 -553 -217 -902 -302 -629 -978
-1406 -1800 -2072 -207 -167 -447 -340 -473 -340 -6 0 -7 51 -3 128 4 70 18
336 31 592 14 256 25 468 25 473 0 4 7 7 15 7 16 0 38 -19 73 -65 l23 -30 -3
95 -3 95 115 7 c622 40 911 93 1156 213 140 68 248 163 294 260 83 175 47 385
-94 541 -165 183 -461 305 -950 394 -93 16 -171 32 -174 34 -2 3 11 7 29 10
19 3 88 14 154 25 426 70 657 234 673 476 3 46 0 93 -8 121 -43 151 -235 285
-546 379 -121 37 -319 81 -447 99 l-81 11 -18 50 c-11 33 -33 64 -62 91 -84
77 -266 154 -365 154 -63 0 -185 -32 -253 -65 -100 -50 -141 -106 -137 -183
l3 -47 -129 -22 c-424 -72 -740 -185 -878 -312 -69 -64 -97 -114 -97 -174 0
-52 27 -93 76 -113 47 -20 80 -18 163 11 126 43 174 85 96 85 -62 0 -70 10
-30 37 31 21 36 29 33 56 -3 27 -11 36 -51 56 -36 18 -45 26 -37 36 32 39 253
99 515 140 179 28 463 61 469 54 2 -2 11 -138 21 -301 14 -248 14 -302 3 -325
-12 -25 -26 -30 -183 -69 -310 -75 -395 -104 -468 -158 -25 -18 -67 -74 -67
-89 0 -3 21 -19 48 -36 26 -16 53 -39 60 -51 11 -18 22 -20 140 -20 70 0 211
-3 314 -7 178 -6 187 -7 192 -27 3 -12 8 -91 12 -178 l7 -156 -79 -7 c-43 -5
-158 -5 -254 -2 -487 16 -979 -71 -1129 -199 -52 -45 -71 -81 -71 -136 1 -103
74 -163 280 -228 69 -22 139 -49 155 -61 l30 -21 -60 6 c-33 3 -130 27 -215
54 -171 54 -210 65 -210 57 0 -3 18 -22 41 -42 30 -27 39 -43 37 -62 -3 -23
-9 -27 -50 -31 -78 -9 -76 -29 6 -65 237 -105 1017 -253 1432 -272 l142 -6 6
-101 c34 -552 64 -1179 56 -1188 -8 -10 -211 129 -375 257 -311 244 -697 593
-947 856 -653 688 -1030 1289 -1149 1830 -28 132 -36 380 -15 514 65 425 331
812 703 1025 267 153 584 222 868 190z m1733 -1050 c170 -41 262 -116 262
-215 0 -103 -116 -179 -378 -245 -108 -28 -307 -58 -317 -49 -4 5 11 335 21
441 l6 66 46 10 c86 18 269 14 360 -8z m-220 -1061 c285 -58 565 -184 642
-290 25 -35 30 -51 30 -99 0 -75 -36 -127 -112 -164 -137 -66 -247 -72 -379
-21 -106 41 -249 113 -249 126 0 11 2 11 80 -6 36 -8 73 -14 84 -15 51 -1 -51
62 -154 95 -30 9 -88 31 -127 47 l-73 30 0 52 c0 29 3 101 6 159 6 98 9 106
28 109 38 6 129 -3 224 -23z m-778 -410 c30 -5 58 -13 63 -18 10 -10 26 -179
27 -282 l0 -66 -61 -7 c-93 -9 -312 -7 -456 4 -310 26 -499 82 -517 154 -34
136 319 240 774 228 63 -2 140 -7 170 -13z m628 -179 c70 -29 174 -88 186
-108 7 -11 -91 -57 -154 -71 -54 -12 -140 -14 -158 -3 -9 6 -10 35 -5 116 l6
107 26 -6 c14 -4 59 -20 99 -35z"></path>
</g>
</svg>